<?xml version="1.0" encoding="utf-8"?>
<!-- Generator: Adobe Illustrator 19.2.1, SVG Export Plug-In . SVG Version: 6.00 Build 0)  -->
<svg version="1.1" id="Layer_1" xmlns="http://www.w3.org/2000/svg" xmlns:xlink="http://www.w3.org/1999/xlink" x="0px" y="0px"
	 viewBox="0 0 208.6 116.1" style="enable-background:new 0 0 208.6 116.1;" xml:space="preserve">
<style type="text/css">
	.st0{fill:#FFFFFF;}
	.st1{fill:#1F2C5D;}
	.st2{fill:#A11D21;}
	.st3{fill:#BFBFBF;}
</style>
<rect class="st0" width="208.6" height="116.1"/>
<title>MyPolitics_whitelogo</title>
<rect x="5.3" y="5.1" class="st0" width="198" height="105.9"/>
<path class="st1" d="M34.8,5.1h13.3v44.2h-8.6V19.4c0-0.9,0-2.1,0-3.6s0-2.7,0-3.6l-8.3,37.1h-9l-8.3-37.1c0,0.8,0,2,0,3.6
	s0,2.8,0,3.6v29.9H5.3V5.1h13.4l8,34.8L34.8,5.1z"/>
<path class="st1" d="M56.3,55.5l1,0.1c0.8,0,1.6,0,2.4-0.1c0.7-0.1,1.3-0.3,1.9-0.7c0.7-0.6,1.1-1.3,1.4-2.1c0.3-0.6,0.5-1.3,0.6-2
	l-12-34.1h9.5l7.1,24.1L75,16.6h9.1L72.9,48.7C70.7,55,69,58.8,67.7,60.3s-3.8,2.2-7.6,2.2h-1.8c-0.5,0-1.2,0-2.1-0.1L56.3,55.5
	L56.3,55.5z"/>
<path class="st1" d="M34.1,91.2c-2.5,2.1-6.1,3.2-10.8,3.2h-9v15.5h-9V66.7h18.5c4.3,0,7.7,1.1,10.2,3.4s3.8,5.7,3.8,10.3
	C37.9,85.5,36.6,89.1,34.1,91.2z M27.2,75.7c-1.4-1-3.1-1.5-4.8-1.4h-8.1V87h8.1c1.7,0.1,3.5-0.4,4.8-1.6c1.1-1,1.7-2.7,1.7-4.9
	C29,78.2,28.4,76.6,27.2,75.7z"/>
<path class="st1" d="M68.3,106c-2.7,3.3-6.8,5-12.3,5s-9.6-1.7-12.3-5c-5.4-7.1-5.4-16.9,0-24c2.7-3.4,6.8-5.1,12.3-5.1
	s9.6,1.7,12.3,5.1C73.7,89.1,73.7,98.9,68.3,106z M61.6,101.4c1.3-1.7,2-4.2,2-7.4s-0.7-5.7-2-7.4c-1.3-1.7-3.4-2.7-5.6-2.6
	c-2.2-0.1-4.3,0.8-5.7,2.6c-1.3,1.7-2,4.2-2,7.4c0,3.2,0.7,5.7,2,7.4c1.3,1.7,3.4,2.7,5.6,2.6C58.1,104.1,60.3,103.2,61.6,101.4z"/>
<path class="st1" d="M85.2,109.9h-8.4V66.7h8.3L85.2,109.9L85.2,109.9z"/>
<path class="st1" d="M100,74.2h-8.5v-7.7h8.5V74.2z M91.5,78h8.5v32h-8.5V78z"/>
<path class="st1" d="M104.3,84.2v-6h4.5v-8.9h8.3v8.9h5.2v6H117V101c-0.1,0.8,0.1,1.7,0.5,2.4c0.3,0.3,1.3,0.5,3,0.5h0.8h0.8v6.2
	l-4,0.2c-3.9,0.1-6.6-0.6-8.1-2.1c-1-1.2-1.5-2.8-1.4-4.4V84.2H104.3z"/>
<path class="st1" d="M135.7,74.2h-8.5v-7.7h8.5V74.2z M127.2,78h8.5v32h-8.5V78z"/>
<path class="st1" d="M160.9,89.4c-0.1-1.2-0.6-2.3-1.2-3.2c-1-1.3-2.7-2.1-4.4-1.9c-2.7-0.1-5.1,1.6-5.8,4.2
	c-0.6,1.9-0.9,3.9-0.8,5.9c-0.1,1.9,0.2,3.8,0.8,5.6c0.7,2.5,3.1,4.1,5.6,4c2,0,3.4-0.5,4.2-1.6c0.9-1.2,1.4-2.6,1.5-4.1h8.5
	c-0.2,2.6-1.2,5.1-2.8,7.2c-2.6,3.7-6.5,5.5-11.6,5.5s-8.9-1.5-11.4-4.6s-3.6-7-3.6-11.9c0-5.5,1.3-9.7,4-12.8s6.4-4.6,11.1-4.6
	c3.5-0.1,6.9,0.8,9.8,2.7c2.6,1.8,4.1,5,4.5,9.5L160.9,89.4L160.9,89.4z"/>
<path class="st1" d="M181.2,99.7c0,1.2,0.4,2.3,1.1,3.2c1,1.1,3,1.7,5.8,1.7c1.3,0.1,2.7-0.2,3.9-0.7c1.2-0.6,1.8-2,1.2-3.3
	c-0.2-0.5-0.5-0.8-1-1.1c-0.8-0.5-3.7-1.3-8.7-2.5c-3.6-0.9-6.2-2-7.7-3.4c-1.6-1.5-2.4-3.6-2.2-5.8c0-2.9,1.3-5.7,3.5-7.6
	c2.3-2.1,5.6-3.2,9.8-3.2c3.4-0.1,6.8,0.7,9.8,2.4c2.5,1.6,4,4.3,4.3,8.2h-8.4c-0.1-0.9-0.4-1.8-0.9-2.6c-0.9-1.1-2.5-1.7-4.7-1.7
	c-1.4-0.1-2.7,0.2-3.9,0.8c-0.7,0.4-1.1,1.2-1.2,2c0,0.9,0.4,1.7,1.2,2.1s3.7,1.2,8.7,2.3c2.8,0.5,5.3,1.7,7.5,3.6
	c1.6,1.6,2.5,3.7,2.5,6c0.1,3-1.2,5.9-3.5,7.8c-2.4,2-6,3-10.9,3s-8.7-1.1-11.2-3.2c-2.4-2-3.7-5-3.6-8.1L181.2,99.7L181.2,99.7z"/>
<polygon class="st2" points="105,14.6 110.3,25.4 122.2,27.1 113.6,35.5 115.7,47.4 105,41.8 94.3,47.4 96.4,35.5 87.7,27.1 
	99.7,25.4 "/>
<polygon class="st3" points="145.5,14.6 150.8,25.4 162.8,27.1 154.1,35.5 156.2,47.4 145.5,41.8 134.8,47.4 136.9,35.5 128.3,27.1 
	140.2,25.4 "/>
<polygon class="st1" points="186,14.6 191.3,25.4 203.3,27.1 194.6,35.5 196.7,47.4 186,41.8 175.3,47.4 177.4,35.5 168.8,27.1 
	180.7,25.4 "/>
</svg>
